<?xml version="1.0" encoding="UTF-8" standalone="no" ?>
<!DOCTYPE svg PUBLIC "-//W3C//DTD SVG 1.1//EN" "http://www.w3.org/Graphics/SVG/1.1/DTD/svg11.dtd">
<svg xmlns="http://www.w3.org/2000/svg" xmlns:xlink="http://www.w3.org/1999/xlink" version="1.1" width="426.1692204284668" height="186.95056" xml:space="preserve">
<desc>Created with Fabric.js 1.6.0-rc.1</desc>
<defs></defs>
  <g transform="translate(214 129.89) scale(1.83 1.83)">
   <text font-family="Youthanasia" font-size="40" font-weight="normal" style="stroke: none; stroke-width: 1; stroke-dasharray: none; stroke-linecap: butt; stroke-linejoin: miter; stroke-miterlimit: 10; fill: #453cc9; fill-rule: nonzero; opacity: 1;" ><tspan x="-110.98" y="8.98" style="stroke: none; stroke-width: 0; stroke-dasharray: none; stroke-linecap: butt; stroke-linejoin: miter; stroke-miterlimit: 4; fill: #453cc9; fill-rule: ; opacity: 1;">T</tspan><tspan x="-90.81" y="8.98" style="stroke: none; stroke-width: 0; stroke-dasharray: none; stroke-linecap: butt; stroke-linejoin: miter; stroke-miterlimit: 4; fill: #453cc9; fill-rule: ; opacity: 1;">a</tspan><tspan x="-71.29" y="8.98" style="stroke: none; stroke-width: 0; stroke-dasharray: none; stroke-linecap: butt; stroke-linejoin: miter; stroke-miterlimit: 4; fill: #453cc9; fill-rule: ; opacity: 1;">n</tspan><tspan x="-51.76" y="8.98" style="stroke: none; stroke-width: 0; stroke-dasharray: none; stroke-linecap: butt; stroke-linejoin: miter; stroke-miterlimit: 4; fill: #453cc9; fill-rule: ; opacity: 1;">u</tspan><tspan x="-32.24" y="8.98" style="stroke: none; stroke-width: 0; stroke-dasharray: none; stroke-linecap: butt; stroke-linejoin: miter; stroke-miterlimit: 4; fill: #453cc9; fill-rule: ; opacity: 1;"> </tspan><tspan x="-15.91" y="8.98" style="stroke: none; stroke-width: 0; stroke-dasharray: none; stroke-linecap: butt; stroke-linejoin: miter; stroke-miterlimit: 4; fill: #453cc9; fill-rule: ; opacity: 1;">K</tspan><tspan x="4.93" y="8.98" style="stroke: none; stroke-width: 0; stroke-dasharray: none; stroke-linecap: butt; stroke-linejoin: miter; stroke-miterlimit: 4; fill: #453cc9; fill-rule: ; opacity: 1;">a</tspan><tspan x="24.45" y="8.98" style="stroke: none; stroke-width: 0; stroke-dasharray: none; stroke-linecap: butt; stroke-linejoin: miter; stroke-miterlimit: 4; fill: #453cc9; fill-rule: ; opacity: 1;">u</tspan><tspan x="43.98" y="8.98" style="stroke: none; stroke-width: 0; stroke-dasharray: none; stroke-linecap: butt; stroke-linejoin: miter; stroke-miterlimit: 4; fill: #453cc9; fill-rule: ; opacity: 1;">s</tspan><tspan x="63.5" y="8.98" style="stroke: none; stroke-width: 0; stroke-dasharray: none; stroke-linecap: butt; stroke-linejoin: miter; stroke-miterlimit: 4; fill: #453cc9; fill-rule: ; opacity: 1;">h</tspan><tspan x="83.03" y="8.98" style="stroke: none; stroke-width: 0; stroke-dasharray: none; stroke-linecap: butt; stroke-linejoin: miter; stroke-miterlimit: 4; fill: #453cc9; fill-rule: ; opacity: 1;">i</tspan><tspan x="91.94" y="8.98" style="stroke: none; stroke-width: 0; stroke-dasharray: none; stroke-linecap: butt; stroke-linejoin: miter; stroke-miterlimit: 4; fill: #453cc9; fill-rule: ; opacity: 1;">k</tspan></text>
 </g>
<g style="stroke: none; stroke-width: 1; stroke-dasharray: none; stroke-linecap: butt; stroke-linejoin: miter; stroke-miterlimit: 10; fill: none; fill-rule: nonzero; opacity: 1;" transform="translate(98 10) scale(0.23 0.23)" >
  <path d="M 505.918 236.117 c -26.651 -43.587 -62.485 -78.609 -107.497 -105.065 c -45.015 -26.457 -92.549 -39.687 -142.608 -39.687 c -50.059 0 -97.595 13.225 -142.61 39.687 C 68.187 157.508 32.355 192.53 5.708 236.117 C 1.903 242.778 0 249.345 0 255.818 c 0 6.473 1.903 13.04 5.708 19.699 c 26.647 43.589 62.479 78.614 107.495 105.064 c 45.015 26.46 92.551 39.68 142.61 39.68 c 50.06 0 97.594 -13.176 142.608 -39.536 c 45.012 -26.361 80.852 -61.432 107.497 -105.208 c 3.806 -6.659 5.708 -13.223 5.708 -19.699 C 511.626 249.345 509.724 242.778 505.918 236.117 z M 194.568 158.03 c 17.034 -17.034 37.447 -25.554 61.242 -25.554 c 3.805 0 7.043 1.336 9.709 3.999 c 2.662 2.664 4 5.901 4 9.707 c 0 3.809 -1.338 7.044 -3.994 9.704 c -2.662 2.667 -5.902 3.999 -9.708 3.999 c -16.368 0 -30.362 5.808 -41.971 17.416 c -11.613 11.615 -17.416 25.603 -17.416 41.971 c 0 3.811 -1.336 7.044 -3.999 9.71 c -2.667 2.668 -5.901 3.999 -9.707 3.999 c -3.809 0 -7.044 -1.334 -9.71 -3.999 c -2.667 -2.666 -3.999 -5.903 -3.999 -9.71 C 169.015 195.482 177.535 175.065 194.568 158.03 z M 379.867 349.04 c -38.164 23.12 -79.514 34.687 -124.054 34.687 c -44.539 0 -85.889 -11.56 -124.051 -34.687 s -69.901 -54.2 -95.215 -93.222 c 28.931 -44.921 65.19 -78.518 108.777 -100.783 c -11.61 19.792 -17.417 41.207 -17.417 64.236 c 0 35.216 12.517 65.329 37.544 90.362 s 55.151 37.544 90.362 37.544 c 35.214 0 65.329 -12.518 90.362 -37.544 s 37.545 -55.146 37.545 -90.362 c 0 -23.029 -5.808 -44.447 -17.419 -64.236 c 43.585 22.265 79.846 55.865 108.776 100.783 C 449.767 294.84 418.031 325.913 379.867 349.04 z" style="stroke: none; stroke-width: 1; stroke-dasharray: none; stroke-linecap: butt; stroke-linejoin: miter; stroke-miterlimit: 10; fill: #e69737; fill-rule: nonzero; opacity: 1;" transform=" matrix(1 0 0 1 0 0) " stroke-linecap="round" />
</g>
</svg>